<svg id="Capa_1" data-name="Capa 1" xmlns="http://www.w3.org/2000/svg" viewBox="0 0 245.4 51.88"><defs><style>.cls-1{fill:#010000}.cls-2{fill:#f28b00}</style></defs><path class="cls-1" d="M165.29 23.54c0 .67-.12 1.26-.36 1.77-.24.52-.58.96-1.02 1.32-.44.36-.95.63-1.53.81-.59.18-1.22.27-1.9.27a6.816 6.816 0 01-2.4-.42c-.32-.12-.58-.24-.8-.36-.22-.12-.36-.23-.45-.32a.894.894 0 01-.19-.33c-.04-.14-.06-.31-.06-.54 0-.16 0-.29.02-.4.01-.1.03-.19.06-.26s.07-.11.11-.14c.04-.03.09-.04.15-.04.1 0 .25.06.44.19a6.93 6.93 0 001.77.81c.41.13.89.19 1.43.19.41 0 .78-.06 1.12-.17.34-.11.63-.26.87-.47.24-.2.43-.45.56-.74.13-.29.2-.62.2-1 0-.4-.09-.74-.27-1.03-.18-.28-.42-.53-.72-.75-.3-.22-.64-.41-1.02-.59s-.78-.36-1.18-.55c-.4-.19-.79-.39-1.17-.62-.38-.23-.72-.49-1.02-.8-.3-.31-.54-.67-.73-1.08-.18-.41-.28-.9-.28-1.48s.11-1.12.32-1.58c.21-.46.52-.85.9-1.17.38-.31.84-.55 1.37-.71.53-.17 1.1-.25 1.71-.25a5.964 5.964 0 011.84.3c.28.09.53.19.75.31.22.11.36.2.43.27s.12.12.14.16c.02.04.04.09.06.15.01.06.02.14.03.22v.34c0 .13 0 .25-.02.35 0 .1-.02.19-.05.26-.02.07-.05.12-.09.15-.04.03-.09.05-.14.05-.08 0-.21-.05-.38-.15-.17-.1-.38-.22-.63-.34-.25-.13-.54-.24-.88-.35-.34-.11-.72-.16-1.14-.16-.39 0-.74.05-1.03.16-.29.11-.53.24-.72.42-.19.17-.33.38-.43.62-.1.24-.14.5-.14.76 0 .4.1.73.28 1.02.18.28.43.53.73.75.3.22.65.42 1.03.6.39.18.78.37 1.18.55.4.19.8.39 1.18.61.38.22.73.48 1.03.79.3.3.55.66.73 1.07.19.41.28.9.28 1.46m10.59 3.26c0 .13 0 .25-.02.35-.02.1-.04.18-.08.24-.04.07-.08.11-.13.14-.05.03-.1.04-.16.04h-6.79c-.17 0-.33-.06-.48-.17-.15-.11-.22-.31-.22-.6V14.12c0-.28.07-.48.22-.6.15-.11.31-.17.48-.17h6.72c.05 0 .11.02.16.04.05.03.08.08.12.14.03.07.05.15.07.25.02.1.03.22.03.37 0 .13-.01.25-.03.35-.02.1-.04.18-.07.24-.03.06-.07.11-.12.14-.05.03-.1.04-.16.04h-5.53v4.44h4.74c.06 0 .11.02.16.05.05.03.08.08.12.14.04.06.06.14.07.24.02.1.02.22.02.36 0 .13 0 .25-.02.34-.01.1-.04.17-.07.23-.03.06-.07.1-.12.13-.05.03-.1.04-.16.04h-4.74v5.06h5.61c.06 0 .11.01.16.04s.09.07.13.14c.04.06.06.14.08.24.01.1.02.22.02.36m12.49.49c0 .06 0 .11-.03.15-.02.04-.07.08-.14.11s-.17.05-.3.06c-.13.02-.31.02-.53.02-.19 0-.34 0-.46-.02a.946.946 0 01-.29-.07.39.39 0 01-.17-.14.64.64 0 01-.1-.22l-1.3-3.33c-.15-.38-.31-.73-.48-1.04-.16-.32-.36-.59-.59-.82-.23-.23-.49-.41-.8-.54-.31-.13-.67-.19-1.1-.19h-1.26v6.02c0 .06-.01.11-.05.15a.33.33 0 01-.15.1c-.07.03-.16.05-.29.07-.12.02-.27.03-.45.03s-.34-.01-.46-.03c-.12-.02-.22-.04-.29-.07a.356.356 0 01-.15-.1.27.27 0 01-.05-.15V14.12c0-.28.07-.48.23-.6.15-.11.31-.17.47-.17h3.01c.36 0 .65 0 .89.03.24.02.45.04.64.06.55.1 1.03.24 1.45.45.42.21.77.46 1.05.78.28.31.5.67.64 1.08.14.41.21.85.21 1.34s-.06.9-.19 1.27c-.13.38-.31.71-.55.99-.24.29-.53.54-.86.75-.33.21-.71.39-1.13.54.23.1.44.23.63.39s.37.35.53.56c.17.22.32.47.47.75.14.28.29.61.44.96l1.27 3.12c.1.26.17.45.2.55.03.11.04.19.04.25m-2.83-9.94c0-.55-.12-1.02-.37-1.41-.25-.38-.66-.66-1.24-.83-.18-.05-.39-.09-.62-.11-.23-.02-.53-.03-.9-.03h-1.59v4.77h1.84c.5 0 .92-.06 1.28-.18s.66-.29.91-.5c.24-.22.42-.47.53-.76.11-.29.17-.61.17-.95m16.24 9.45c0 .15-.02.27-.07.37-.05.1-.12.18-.2.25-.08.07-.17.11-.26.14-.1.03-.2.04-.3.04h-.62c-.2 0-.37-.02-.52-.06-.15-.04-.28-.11-.42-.22-.13-.11-.26-.25-.39-.43s-.27-.42-.42-.7l-4.32-8.05c-.22-.42-.45-.85-.68-1.31-.23-.46-.44-.9-.64-1.33h-.02c.02.53.03 1.06.04 1.61v10.17c0 .05-.02.1-.05.15-.03.05-.08.08-.16.11-.07.03-.17.05-.29.07-.12.02-.27.03-.45.03s-.34-.01-.46-.03c-.12-.02-.21-.04-.28-.07-.07-.03-.12-.06-.15-.11a.298.298 0 01-.05-.15V14.17c0-.29.08-.5.25-.62.16-.12.34-.19.54-.19h.93c.22 0 .4.02.55.05.15.04.28.1.4.18.12.08.23.2.34.35.11.15.22.34.34.56l3.32 6.21c.21.38.4.75.59 1.11.19.36.38.72.55 1.07.17.35.35.69.52 1.03l.51 1.02h.01c-.02-.57-.02-1.17-.03-1.8v-9.48c0-.05.02-.1.05-.14.03-.04.08-.08.15-.11.07-.03.17-.06.29-.07.12-.01.28-.02.47-.02.17 0 .31 0 .43.02.12.01.22.04.29.07.07.03.12.07.15.11.03.04.04.09.04.14v13.06zm14.36.11c.06.16.09.29.1.39 0 .1-.03.17-.09.22-.06.05-.15.08-.29.1-.14.02-.32.02-.54.02s-.4 0-.54-.02c-.14-.01-.24-.03-.31-.05a.356.356 0 01-.15-.1c-.03-.04-.06-.1-.09-.16l-1.21-3.44h-5.88l-1.16 3.4c-.02.07-.05.12-.08.17-.04.05-.09.09-.16.12s-.17.06-.29.07c-.13.02-.29.02-.5.02s-.39 0-.52-.03c-.13-.02-.23-.05-.28-.1-.06-.05-.08-.13-.08-.22 0-.1.04-.23.09-.39l4.75-13.15c.03-.08.07-.15.11-.2.05-.05.12-.09.21-.12s.21-.05.35-.06c.15-.01.32-.02.54-.02.24 0 .43 0 .58.02.15.01.28.03.37.06.1.03.17.07.22.13.05.05.09.12.12.2l4.75 13.15zm-6.09-11.6h-.01l-2.44 7.05h4.92l-2.47-7.05zm19.15 11.49c0 .15-.03.27-.08.37-.04.1-.11.18-.19.25s-.17.11-.27.14c-.1.03-.2.04-.29.04h-.62c-.2 0-.37-.02-.52-.06-.14-.04-.28-.11-.42-.22a2.84 2.84 0 01-.4-.43c-.13-.18-.27-.42-.42-.7l-4.32-8.05c-.22-.42-.45-.85-.68-1.31-.23-.46-.45-.9-.64-1.33h-.02c.01.53.03 1.06.03 1.61s.01 1.09.01 1.63v8.54c0 .05-.01.1-.04.15-.03.05-.08.08-.16.11-.07.03-.17.05-.29.07-.12.02-.27.03-.46.03s-.33-.01-.45-.03-.21-.04-.28-.07c-.07-.03-.12-.06-.15-.11a.298.298 0 01-.05-.15V14.17c0-.29.09-.5.25-.62a.91.91 0 01.54-.19h.92c.22 0 .4.02.55.05.15.04.28.1.39.18.12.08.23.2.34.35.11.15.22.34.34.56l3.32 6.21c.2.38.4.75.59 1.11.19.36.37.72.55 1.07.18.35.35.69.53 1.03l.51 1.02h.01c-.02-.57-.03-1.17-.03-1.8v-9.48c0-.05.01-.1.05-.14.03-.04.08-.08.16-.11.07-.03.17-.06.29-.07.12-.01.28-.02.47-.02.17 0 .32 0 .44.02.12.01.22.04.29.07.07.03.12.07.15.11.03.04.05.09.05.14v13.06zm12.45-9.23c0 .71-.12 1.35-.35 1.91-.23.57-.57 1.05-1 1.45-.43.4-.97.71-1.59.93-.63.22-1.39.33-2.26.33h-1.61v5.1c0 .06-.01.11-.05.15-.03.04-.08.08-.15.1-.07.03-.16.05-.28.07-.12.02-.27.03-.45.03s-.34-.01-.46-.03c-.12-.02-.22-.04-.29-.07a.249.249 0 01-.15-.1.26.26 0 01-.04-.15V14.17c0-.29.08-.5.23-.62.15-.12.32-.19.51-.19h3.03c.3 0 .6.01.88.04s.61.08.99.16.77.24 1.17.47c.39.23.73.51 1.01.85.27.34.49.72.64 1.17.15.44.22.93.22 1.46m-1.98.15c0-.58-.11-1.06-.32-1.44-.21-.39-.48-.67-.79-.87-.32-.19-.65-.31-.99-.36-.34-.05-.67-.08-.99-.08h-1.74v5.68h1.7c.57 0 1.04-.07 1.42-.22.38-.15.69-.35.95-.61s.45-.57.58-.93c.13-.36.2-.75.2-1.18"/><path class="cls-2" d="M42.04 24.23s20.58-27.01 41.89-6.9c0 0-23.14 17.19-41.89 6.9"/><path class="cls-2" d="M150.99 25.8c-10.54-2.93-18.41-7.11-26.39-12.45-5.42-3.62-11.65-7.05-17.39-10.02-5.93-3.07-12.22-4.51-18.66-2.18C82.9 3.2 78.24 7.42 73.68 11.2c-3.32 2.75-6.75 5.32-10.68 7.14-5.28 2.2-14.54-1.22-16.96 3.94-1.94 4.14-8.82 5.33-16.22 5.31-.3.45-.71.87-1.28 1.21-3.18 1.91-6.51 3.53-9.75 5.34-1.38.77-2.95 1.67-4.58 1.99 10.9 4.12 30.17 2.74 30.17 2.74 14.95-2.14 21.78-9.53 29.67-13.27 6.33-2.49 12.43-1.29 18.44 1.6.96.46 1.89.96 2.81 1.47.72-.26 1.51-.31 2.27-.06.45.15.89.29 1.35.4h.04c1.38.03 2.61.76 3.3 1.85 13.97 6.67 29.61 8.18 44.52 11.73.62.15 1.13.4 1.53.72 46.83 2.22 97.08-15.83 97.08-15.83-56.23 11.21-84.36 1.08-94.41-1.71"/><path class="cls-2" d="M39.43 27.51s2.3-6.95 4.38-6.54c2.08.41 5.01 1.58 5.01 1.58l-6.28 4.96h-3.1zm-12.48 1.45c-2.77 2.99-6.8 4.46-10.72 5.46-3.75.96-8.29 2.17-12.18 1.67-1.25-.17-2.56-.4-3.66-.96.17 6.85 6.76 12.93 6.76 12.93C26.46 62.28 63 32.2 63 32.2c-6.52 2.25-22.8-.42-36.04-3.24"/><path class="cls-1" d="M39.43 27.51S7.81 58.38.38 38.64c0 0-.91-3.3.1-5.19 0 0 4.21 7.93 34.5-9.77 2.47-1.38 1.74-1.1 3.01-1.74 1.28-.64 8.34-5.92 12.08-9.72 3.68-3.73 7.83-8.01 12.68-9.06 5.4-1.17 15.31 3.68 15.31 3.68s36.26 23.23 48.1 26.97c4.6 1.33 40.74 17.29 113.49-5.14 0 0-80 41.82-164.49-10.55-4.64-2.87-9.47-6.74-14.83-6.17-5.39.57-9.74 4.65-13.78 8.73-2.32 2.35-4.62 4.79-7.14 6.82"/><path class="cls-1" d="M230.84 36.08c0 .28-.04.53-.14.75-.09.23-.22.41-.39.57-.17.16-.38.28-.63.36-.25.09-.54.13-.89.13h-.63v2s0 .04-.02.06c-.01.02-.03.03-.06.04-.03 0-.06.02-.11.03h-.36c-.05 0-.08-.02-.12-.03-.03-.01-.05-.02-.06-.04-.01-.02-.02-.04-.02-.06v-5.12c0-.11.03-.19.09-.24.06-.05.13-.07.2-.07h1.19c.12 0 .23 0 .34.02.11.01.24.03.39.06.15.03.3.09.46.18a1.36 1.36 0 01.65.79c.06.17.09.36.09.57m-.78.06c0-.23-.04-.42-.13-.57a.917.917 0 00-.7-.48c-.13-.02-.26-.03-.39-.03h-.68v2.23h.67c.22 0 .41-.03.55-.08.15-.06.27-.14.37-.24.1-.1.18-.22.23-.36.05-.14.08-.3.08-.46m5.02 3.55v.14c0 .04-.02.07-.03.1-.01.03-.03.04-.05.05-.02.01-.04.02-.06.02h-2.66a.28.28 0 01-.19-.07c-.06-.04-.09-.12-.09-.23v-4.95c0-.11.03-.19.09-.24.06-.04.12-.07.19-.07h2.63s.04 0 .06.02c.02.01.03.03.05.06.01.03.02.06.03.1 0 .04.01.09.01.14 0 .05 0 .1-.01.14 0 .04-.01.07-.03.1a.12.12 0 01-.05.05c-.02.01-.04.02-.06.02h-2.17v1.74h1.86s.04 0 .06.02c.02.01.03.03.05.05.01.02.02.05.03.09v.27c0 .04-.02.07-.03.09a.12.12 0 01-.05.05c-.02.01-.04.01-.06.01h-1.86v1.99h2.2s.05 0 .06.02c.02.01.04.03.05.05l.03.09v.15m4.9.2s0 .04-.01.06c-.01.02-.03.03-.06.04-.03.01-.07.02-.12.03h-.39a.18.18 0 01-.11-.03c-.03-.01-.05-.03-.07-.05-.01-.02-.03-.05-.04-.09l-.51-1.31c-.06-.15-.12-.28-.19-.41-.06-.12-.14-.23-.23-.32a.892.892 0 00-.32-.21c-.12-.05-.26-.07-.43-.07h-.49v2.36s0 .04-.02.06c-.02.02-.04.03-.06.04-.03 0-.06.02-.11.03h-.36c-.05 0-.08-.02-.11-.03-.03-.01-.05-.02-.06-.04-.01-.02-.01-.04-.01-.06v-5.14c0-.11.03-.19.09-.24.06-.04.12-.07.19-.07h1.18c.14 0 .26 0 .35.01.09 0 .18.01.25.02.21.04.4.1.57.18.16.08.3.18.41.31.11.12.2.26.25.42.06.16.08.34.08.53s-.02.36-.07.5c-.05.15-.12.28-.22.39-.1.11-.21.21-.34.29-.13.08-.28.15-.44.21a1.107 1.107 0 01.46.37c.06.09.12.18.18.3.06.11.11.24.17.38l.5 1.22c.04.1.06.18.08.22 0 .04.01.07.01.1m-1.11-3.9c0-.22-.05-.4-.15-.55-.09-.15-.26-.26-.49-.32-.07-.02-.15-.03-.24-.04-.09 0-.21-.01-.35-.01H237v1.87h.72c.2 0 .36-.02.5-.07a.92.92 0 00.35-.2c.1-.08.17-.18.21-.3.04-.11.07-.24.07-.37m6.36 1.95c0 .34-.05.64-.15.9-.1.27-.24.49-.42.67-.18.18-.41.32-.67.42-.26.09-.57.14-.9.14-.31 0-.59-.04-.84-.13a1.85 1.85 0 01-.65-.39c-.18-.17-.32-.39-.41-.65-.1-.26-.15-.56-.15-.9v-3.44s0-.04.02-.06c0-.02.03-.03.06-.04.03 0 .07-.02.12-.03.04 0 .1-.01.18-.01.07 0 .13 0 .17.01.05 0 .09.02.11.03.03 0 .05.02.06.04.01.02.02.04.02.06v3.36c0 .26.03.48.09.67.06.19.15.35.27.48.12.13.26.22.43.29.16.06.35.1.56.1s.41-.03.57-.1c.17-.06.31-.16.42-.28.12-.13.21-.28.27-.47.06-.19.09-.4.09-.65v-3.39s0-.04.02-.06c.01-.02.03-.03.06-.04.03 0 .07-.02.11-.03.05 0 .11-.01.18-.01s.13 0 .18.01c.05 0 .08.02.11.03.03 0 .05.02.06.04.01.02.02.04.02.06v3.39zm-1.65-5.03s.07-.07.09-.08c.03-.02.06-.03.1-.05.03-.01.08-.02.13-.02h.18c.09 0 .15 0 .2.02.05.01.08.03.1.05.02.02.03.04.02.07 0 .02-.02.05-.05.08l-.97.91s-.06.05-.08.07c-.02.01-.05.03-.09.04a.36.36 0 01-.11.02h-.31c-.04 0-.06-.02-.08-.03-.02-.02-.02-.03-.01-.06 0-.02.02-.05.05-.08l.81-.92z"/></svg>